<svg width="218" height="48" viewBox="0 0 218 48" fill="none" xmlns="http://www.w3.org/2000/svg">
<path d="M5.625 19C2.52338 19 0 21.243 0 24C0 26.757 2.52338 29 5.625 29H6V19H5.625Z" fill="#E8E8E8"/>
<path d="M0 24C0.0337591 26.7621 2.54344 29 5.6249 29H6V24H0Z" fill="#BABABA"/>
<path d="M54 19V29C57.0846 29 59 26.5862 59 24C59 21.4388 57.1115 19 54 19Z" fill="#E8E8E8"/>
<path d="M54 24V29C57.0632 29 58.9728 26.5939 59 24H54Z" fill="#BABABA"/>
<path d="M38 19H21V29H38V19Z" fill="#E8E8E8"/>
<path d="M38 24H21V29H38V24Z" fill="#BABABA"/>
<path d="M6.76471 10C5.79012 10 5 10.7771 5 11.7355V36.2645C5 37.2229 5.79012 38 6.76471 38H13V10H6.76471Z" fill="#F87878"/>
<path d="M5 24V36.2573C5 37.2197 5.79012 38 6.76471 38H13V24H5Z" fill="#F87878"/>
<path d="M20.3333 42H13.6667C12.7462 42 12 41.23 12 40.2803V7.71975C12 6.76999 12.7462 6 13.6667 6H20.3333C21.2538 6 22 6.76999 22 7.71975V40.2803C22 41.23 21.2538 42 20.3333 42Z" fill="#F41E1E"/>
<path d="M12 24V40.2748C12 41.2276 12.7462 42 13.6667 42H20.3333C21.2538 42 22 41.2276 22 40.2748V24H12Z" fill="#F41E1E"/>
<path d="M53.209 10H47V38H53.209C54.1981 38 55 37.2229 55 36.2645V11.7355C55 10.7771 54.1981 10 53.209 10Z" fill="#F87878"/>
<path d="M47 24V38H53.209C54.1981 38 55 37.2197 55 36.2573V24H47Z" fill="#F87878"/>
<path d="M45.3333 42H38.6667C37.7462 42 37 41.23 37 40.2803V7.71975C37 6.76999 37.7462 6 38.6667 6H45.3333C46.2538 6 47 6.76999 47 7.71975V40.2803C47 41.23 46.2538 42 45.3333 42Z" fill="#F41E1E"/>
<path d="M37 24V40.2748C37 41.2276 37.7462 42 38.6667 42H45.3333C46.2538 42 47 41.2276 47 40.2748V24H37Z" fill="#F41E1E"/>
<path d="M86.3449 26.3061C86.3449 25.9845 86.2975 25.6959 86.2026 25.4404C86.1077 25.1755 85.9321 24.9295 85.6759 24.7025C85.4197 24.4754 85.0496 24.2484 84.5656 24.0213C84.0911 23.7848 83.4648 23.5388 82.6866 23.2833C81.7756 22.9806 80.8978 22.64 80.0533 22.2615C79.2087 21.8736 78.4542 21.4242 77.79 20.9133C77.1257 20.393 76.599 19.7875 76.2099 19.0968C75.8209 18.3967 75.6263 17.583 75.6263 16.6559C75.6263 15.7665 75.8256 14.9671 76.2242 14.2575C76.6227 13.5384 77.1779 12.9282 77.8896 12.4268C78.6108 11.9159 79.4554 11.528 80.4234 11.2631C81.3913 10.9887 82.4494 10.8515 83.5977 10.8515C85.116 10.8515 86.454 11.1164 87.6118 11.6462C88.779 12.1666 89.69 12.9093 90.3448 13.8743C91.0091 14.8299 91.3412 15.9605 91.3412 17.2661H86.3734C86.3734 16.7457 86.2643 16.2869 86.046 15.8895C85.8372 15.4921 85.5193 15.1799 85.0923 14.9529C84.6652 14.7258 84.1291 14.6123 83.4838 14.6123C82.8575 14.6123 82.3308 14.7069 81.9037 14.8961C81.4767 15.0853 81.1541 15.3408 80.9358 15.6624C80.7175 15.9747 80.6084 16.32 80.6084 16.6984C80.6084 17.0106 80.6938 17.2945 80.8646 17.5499C81.0449 17.7959 81.2964 18.0277 81.6191 18.2453C81.9512 18.4629 82.3498 18.6711 82.8148 18.8697C83.2892 19.0684 83.8207 19.2624 84.409 19.4516C85.5098 19.8017 86.4873 20.1943 87.3413 20.6295C88.2049 21.0552 88.9309 21.5425 89.5192 22.0912C90.1171 22.6305 90.5678 23.2455 90.8715 23.9361C91.1847 24.6268 91.3412 25.4073 91.3412 26.2778C91.3412 27.2049 91.1609 28.028 90.8003 28.7471C90.4397 29.4661 89.9225 30.0764 89.2488 30.5778C88.575 31.0698 87.7684 31.4435 86.8289 31.6989C85.8894 31.9544 84.8408 32.0821 83.6831 32.0821C82.6202 32.0821 81.5716 31.9497 80.5372 31.6847C79.5123 31.4104 78.5824 30.9941 77.7473 30.4359C76.9122 29.8682 76.2431 29.1444 75.7402 28.2646C75.2467 27.3752 75 26.3203 75 25.0998H80.0106C80.0106 25.7054 80.0912 26.2163 80.2525 26.6325C80.4139 27.0488 80.6511 27.3847 80.9643 27.6401C81.2774 27.8861 81.6618 28.0659 82.1173 28.1794C82.5728 28.2835 83.0947 28.3355 83.6831 28.3355C84.3189 28.3355 84.8313 28.2456 85.2204 28.0659C85.6095 27.8767 85.8942 27.6307 86.0745 27.3279C86.2548 27.0157 86.3449 26.6751 86.3449 26.3061Z" fill="#1A1A1A"/>
<path d="M101.804 16.443V19.7638H92.5227V16.443H101.804ZM94.4728 12.6254H99.2699V26.7886C99.2699 27.1955 99.3173 27.5124 99.4122 27.7395C99.5071 27.9571 99.6684 28.1132 99.8962 28.2078C100.133 28.293 100.447 28.3355 100.836 28.3355C101.111 28.3355 101.339 28.3308 101.519 28.3213C101.699 28.3024 101.87 28.2788 102.031 28.2504V31.6706C101.623 31.803 101.196 31.9023 100.75 31.9686C100.304 32.0443 99.8298 32.0821 99.3268 32.0821C98.3019 32.0821 97.4241 31.9213 96.6934 31.5996C95.9722 31.2779 95.4218 30.7718 95.0422 30.0811C94.6626 29.3904 94.4728 28.4916 94.4728 27.3847V12.6254Z" fill="#1A1A1A"/>
<path d="M108.779 16.443V31.7983H103.967V16.443H108.779ZM103.683 12.4835C103.683 11.8023 103.929 11.2441 104.423 10.8089C104.916 10.3737 105.557 10.1561 106.344 10.1561C107.132 10.1561 107.773 10.3737 108.266 10.8089C108.76 11.2441 109.006 11.8023 109.006 12.4835C109.006 13.1647 108.76 13.7229 108.266 14.1581C107.773 14.5933 107.132 14.8109 106.344 14.8109C105.557 14.8109 104.916 14.5933 104.423 14.1581C103.929 13.7229 103.683 13.1647 103.683 12.4835Z" fill="#1A1A1A"/>
<path d="M119.853 16.443V19.7638H110.572V16.443H119.853ZM112.522 12.6254H117.319V26.7886C117.319 27.1955 117.367 27.5124 117.462 27.7395C117.556 27.9571 117.718 28.1132 117.946 28.2078C118.183 28.293 118.496 28.3355 118.885 28.3355C119.16 28.3355 119.388 28.3308 119.568 28.3213C119.749 28.3024 119.919 28.2788 120.081 28.2504V31.6706C119.673 31.803 119.246 31.9023 118.8 31.9686C118.354 32.0443 117.879 32.0821 117.376 32.0821C116.351 32.0821 115.473 31.9213 114.743 31.5996C114.022 31.2779 113.471 30.7718 113.092 30.0811C112.712 29.3904 112.522 28.4916 112.522 27.3847V12.6254Z" fill="#1A1A1A"/>
<path d="M128.266 28.3923C128.712 28.3923 129.091 28.3119 129.404 28.151C129.727 27.9807 129.969 27.7442 130.13 27.4415C130.301 27.1292 130.382 26.7555 130.372 26.3203H134.885C134.894 27.4746 134.609 28.4869 134.031 29.3573C133.461 30.2183 132.683 30.89 131.696 31.3725C130.719 31.8456 129.613 32.0821 128.379 32.0821C127.174 32.0821 126.121 31.8882 125.219 31.5003C124.318 31.1029 123.563 30.5541 122.956 29.854C122.358 29.1444 121.907 28.3166 121.604 27.3705C121.31 26.4244 121.163 25.3979 121.163 24.2909V23.9645C121.163 22.8576 121.31 21.8311 121.604 20.8849C121.907 19.9294 122.358 19.1015 122.956 18.4014C123.563 17.6918 124.313 17.1431 125.205 16.7552C126.107 16.3578 127.155 16.1591 128.351 16.1591C129.632 16.1591 130.761 16.4004 131.739 16.8829C132.726 17.3654 133.499 18.0656 134.059 18.9833C134.619 19.901 134.894 21.0127 134.885 22.3183H130.372C130.382 21.8547 130.311 21.4384 130.159 21.0694C130.007 20.7005 129.77 20.4072 129.447 20.1896C129.134 19.9625 128.731 19.849 128.237 19.849C127.744 19.849 127.345 19.9578 127.041 20.1754C126.738 20.393 126.505 20.6957 126.344 21.0836C126.192 21.4621 126.088 21.8973 126.031 22.3893C125.983 22.8812 125.96 23.4063 125.96 23.9645V24.2909C125.96 24.8586 125.983 25.3931 126.031 25.8946C126.088 26.3866 126.197 26.8218 126.358 27.2002C126.519 27.5692 126.752 27.8625 127.056 28.0801C127.359 28.2882 127.763 28.3923 128.266 28.3923Z" fill="#1A1A1A"/>
<path d="M141.632 10V31.7983H136.835V10H141.632ZM141.062 23.5955L139.938 23.6239C139.938 22.5454 140.071 21.552 140.336 20.6437C140.602 19.7354 140.982 18.9454 141.475 18.2737C141.969 17.602 142.562 17.0816 143.255 16.7126C143.947 16.3436 144.716 16.1591 145.561 16.1591C146.32 16.1591 147.012 16.268 147.639 16.4856C148.275 16.7032 148.82 17.0532 149.276 17.5357C149.741 18.0182 150.097 18.6474 150.343 19.4232C150.6 20.199 150.728 21.1451 150.728 22.2615V31.7983H145.902V22.2331C145.902 21.6087 145.812 21.1262 145.632 20.7856C145.461 20.4355 145.214 20.1943 144.892 20.0618C144.569 19.9199 144.175 19.849 143.71 19.849C143.15 19.849 142.695 19.9436 142.344 20.1328C141.992 20.322 141.722 20.5869 141.532 20.9275C141.352 21.2587 141.228 21.6513 141.162 22.1054C141.096 22.5596 141.062 23.0563 141.062 23.5955Z" fill="#1A1A1A"/>
<path d="M177.83 20.7572V29.2438C177.479 29.6317 176.938 30.048 176.207 30.4927C175.486 30.9279 174.575 31.3016 173.474 31.6138C172.374 31.926 171.078 32.0821 169.588 32.0821C168.212 32.0821 166.965 31.8645 165.845 31.4293C164.725 30.9846 163.762 30.3365 162.955 29.485C162.158 28.6241 161.541 27.5739 161.105 26.3345C160.678 25.0857 160.464 23.657 160.464 22.0487V20.8991C160.464 19.2908 160.682 17.8621 161.119 16.6133C161.555 15.3644 162.167 14.3142 162.955 13.4627C163.752 12.6018 164.687 11.949 165.759 11.5043C166.841 11.0596 168.027 10.8373 169.318 10.8373C171.225 10.8373 172.777 11.1401 173.973 11.7456C175.168 12.3416 176.075 13.1695 176.691 14.2291C177.308 15.2793 177.683 16.495 177.816 17.8763H173.019C172.924 17.1951 172.744 16.618 172.478 16.145C172.222 15.6624 171.852 15.2982 171.368 15.0522C170.884 14.7968 170.257 14.669 169.489 14.669C168.891 14.669 168.345 14.7968 167.852 15.0522C167.368 15.3077 166.955 15.6956 166.613 16.2159C166.272 16.7268 166.006 17.3702 165.816 18.146C165.636 18.9218 165.546 19.83 165.546 20.8708V22.0487C165.546 23.0799 165.631 23.9834 165.802 24.7592C165.982 25.5351 166.248 26.1831 166.599 26.7035C166.96 27.2144 167.415 27.6023 167.966 27.8672C168.526 28.1227 169.185 28.2504 169.944 28.2504C170.476 28.2504 170.931 28.2078 171.311 28.1227C171.69 28.028 172.004 27.9145 172.25 27.7821C172.506 27.6401 172.701 27.5077 172.834 27.3847V24.1774H169.361V20.7572H177.83Z" fill="#1A1A1A"/>
<path d="M185.246 29.9959L189.232 16.443H194.385L188.193 34.0831C188.06 34.471 187.884 34.8873 187.666 35.332C187.448 35.7861 187.149 36.2166 186.769 36.6234C186.39 37.0302 185.901 37.3614 185.303 37.6168C184.715 37.8723 183.984 38 183.111 38C182.646 38 182.305 37.9763 182.086 37.929C181.878 37.8912 181.555 37.8202 181.118 37.7162V34.296C181.242 34.296 181.346 34.296 181.432 34.296C181.526 34.296 181.631 34.296 181.745 34.296C182.257 34.296 182.665 34.244 182.969 34.1399C183.282 34.0358 183.519 33.8844 183.681 33.6858C183.851 33.4871 183.984 33.2458 184.079 32.962L185.246 29.9959ZM184.236 16.443L187.268 27.186L187.794 32.2524H184.577L179.097 16.443H184.236Z" fill="#1A1A1A"/>
<path d="M200.477 19.6929V31.7983H195.68V16.443H200.178L200.477 19.6929ZM199.894 23.5955L198.798 23.6239C198.798 22.5454 198.926 21.552 199.182 20.6437C199.438 19.7354 199.818 18.9454 200.321 18.2737C200.824 17.602 201.441 17.0816 202.171 16.7126C202.911 16.3436 203.765 16.1591 204.733 16.1591C205.407 16.1591 206.019 16.2632 206.57 16.4714C207.12 16.67 207.595 16.987 207.993 17.4222C208.392 17.8479 208.695 18.4061 208.904 19.0968C209.122 19.778 209.232 20.5964 209.232 21.552V31.7983H204.435V22.1622C204.435 21.5094 204.359 21.0174 204.207 20.6863C204.064 20.3551 203.856 20.1328 203.58 20.0193C203.305 19.9057 202.968 19.849 202.57 19.849C202.152 19.849 201.777 19.9436 201.445 20.1328C201.113 20.322 200.828 20.5869 200.591 20.9275C200.363 21.2587 200.188 21.6513 200.065 22.1054C199.951 22.5596 199.894 23.0563 199.894 23.5955ZM208.691 23.5955L207.353 23.6239C207.353 22.5454 207.471 21.552 207.708 20.6437C207.955 19.7354 208.321 18.9454 208.805 18.2737C209.298 17.602 209.91 17.0816 210.641 16.7126C211.371 16.3436 212.221 16.1591 213.189 16.1591C213.891 16.1591 214.536 16.2632 215.125 16.4714C215.713 16.6795 216.221 17.0154 216.648 17.479C217.075 17.9426 217.407 18.5575 217.644 19.3239C217.881 20.0808 218 21.0174 218 22.1338V31.7983H213.189V22.1338C213.189 21.4999 213.113 21.0221 212.961 20.7005C212.819 20.3693 212.61 20.147 212.335 20.0335C212.059 19.9105 211.732 19.849 211.352 19.849C210.897 19.849 210.503 19.9436 210.171 20.1328C209.839 20.322 209.559 20.5869 209.331 20.9275C209.113 21.2587 208.952 21.6513 208.847 22.1054C208.743 22.5596 208.691 23.0563 208.691 23.5955Z" fill="#1A1A1A"/>
</svg>
